<!--?xml version="1.0" standalone="no"?-->
              <svg id="sw-js-blob-svg" viewBox="0 0 100 100" xmlns="http://www.w3.org/2000/svg" version="1.1">
                    <defs> 
                        <linearGradient id="sw-gradient" x1="0" x2="1" y1="1" y2="0">
                            <stop id="stop1" stop-color="rgba(112.861, 33.073, 201.567, 1)" offset="0%"></stop>
                            <stop id="stop2" stop-color="rgba(255, 158.795, 0, 1)" offset="100%"></stop>
                        </linearGradient>
                    </defs>
                <path fill="url(#sw-gradient)" d="M29.5,-32.2C37.5,-28.4,42.9,-18.5,42,-9.5C41.1,-0.6,33.8,7.4,27.6,14C21.5,20.7,16.4,26,10.1,28.7C3.8,31.4,-3.9,31.5,-10.6,29.1C-17.3,26.6,-23.1,21.7,-27.5,15.3C-32,8.9,-35,1.1,-35.1,-7.6C-35.3,-16.3,-32.5,-25.9,-26.2,-30C-19.8,-34.1,-9.9,-32.8,0.4,-33.2C10.7,-33.7,21.4,-36,29.5,-32.2Z" width="100%" height="100%" transform="translate(50 50)" stroke-width="0" style="transition: all 0.3s ease 0s;" stroke="url(#sw-gradient)"></path>
              </svg>